<?xml version="1.0" encoding="iso-8859-1"?>
<!-- Generator: Adobe Illustrator 19.0.0, SVG Export Plug-In . SVG Version: 6.00 Build 0)  -->
<svg version="1.1" id="Capa_1" xmlns="http://www.w3.org/2000/svg" xmlns:xlink="http://www.w3.org/1999/xlink" x="0px" y="0px"
	 viewBox="0 0 490 490" style="enable-background:new 0 0 490 490;" xml:space="preserve">
<g>
	<g>
		<path d="M416,0H74C33.3,0,0,33.4,0,74v342c0,40.7,33.4,74,74,74h342c40.7,0,74-33.4,74-74V74C490,33.4,456.6,0,416,0z M449.3,416
			c0,18.8-14.6,33.4-33.4,33.4H74c-18.8,0-33.4-14.6-33.4-33.4V74c0-18.8,14.6-33.4,33.4-33.4h342c18.8,0,33.4,14.6,33.4,33.4v342
			H449.3z"/>
		<g>
			<path d="M234.8,169.8c-2.4-5.5-7.8-9-13.8-9s-11.4,3.5-13.8,9L147,308.3c-3.3,7.6,0.2,16.4,7.8,19.7c2,0.9,4,1.3,6,1.3
				c5.8,0,11.3-3.4,13.8-9l13.2-30.2h66.9l13.2,30.2c3.3,7.6,12.1,11.1,19.7,7.8c7.6-3.3,11.1-12.2,7.8-19.7L234.8,169.8z
				 M200.7,260l20.4-46.8l20.4,46.8H200.7z"/>
			<path d="M329.3,217.9c-8.3,0-15,6.7-15,15v81.4c0,8.3,6.7,15,15,15s15-6.7,15-15v-81.4C344.3,224.6,337.6,217.9,329.3,217.9z"/>
			<path d="M329.3,166.4c-8.3,0-15,6.7-15,15v4c0,8.3,6.7,15,15,15s15-6.7,15-15v-4C344.3,173.1,337.6,166.4,329.3,166.4z"/>
		</g>
	</g>
</g>
<g>
</g>
<g>
</g>
<g>
</g>
<g>
</g>
<g>
</g>
<g>
</g>
<g>
</g>
<g>
</g>
<g>
</g>
<g>
</g>
<g>
</g>
<g>
</g>
<g>
</g>
<g>
</g>
<g>
</g>
</svg>
